# xmcd CD database file
#
# Track frame offsets:
#	150
#	11162
#	21435
#	33812
#	44387
#	56765
#	67937
#	80915
#	89460
#	103790
#	116085
#	129210
#	139990
#	152657
#	166492
#	177760
#	189212
#	198882
#	211465
#	224590
#	235075
#	246322
#	256850
#	268430
#
# Disc length: 3712 seconds
#
# Revision: 2
# Processed by: cddbd v1.4b41PL1 Copyright (c) Steve Scherf et al.
# Submitted via: Feurio! 1.50.2ß - http://www.feurio.com
#
DISCID=5f0e7e18
DTITLE=Roy Orbison - Lonely And Blue - Crying
DYEAR=1900
DGENRE=
TTITLE0=Only The Lonely
TTITLE1=Bye-Bye Love
TTITLE2=Cry
TTITLE3=Blue Avenue
TTITLE4=I Can`t Stop Loving You
TTITLE5=Come Back To Me
TTITLE6=Blue Angel
TTITLE7=Raindrops
TTITLE8=A Legend In My Time
TTITLE9=I`m Hurtin
TTITLE10=Twenty Two Days
TTITLE11=I`ll Say It`s My Fault
TTITLE12=Crying
TTITLE13=The Great Pretender
TTITLE14=Love Hurts
TTITLE15=She Wears My Ring
TTITLE16=Wedding Day
TTITLE17=Summersong
TTITLE18=Dance
TTITLE19=Lana
TTITLE20=Loneliness
TTITLE21=Let`s Make A Memory
TTITLE22=Nite Life
TTITLE23=Running Scared
EXTD=
EXTT0=
EXTT1=
EXTT2=
EXTT3=
EXTT4=
EXTT5=
EXTT6=
EXTT7=
EXTT8=
EXTT9=
EXTT10=
EXTT11=
EXTT12=
EXTT13=
EXTT14=
EXTT15=
EXTT16=
EXTT17=
EXTT18=
EXTT19=
EXTT20=
EXTT21=
EXTT22=
EXTT23=
PLAYORDER=
